<svg width="249" height="69" viewBox="0 0 249 69" fill="none" xmlns="http://www.w3.org/2000/svg">
<path d="M0.0581815 38.0972C-0.0735085 32.8209 0.0987625 27.4896 0.0255125 22.2127C-0.0631075 15.8266 -0.200658 9.03334 4.92951 4.34687C9.16276 0.479681 14.8981 0.115518 20.3493 0.131928C22.3001 0.139398 24.2769 0.0274927 26.2509 0.139993C29.0177 0.0551827 34.8393 -0.00913236 37.6182 0.139108C40.9009 0.0222176 45.7663 0.0119557 49.0443 0.133836C55.8057 -0.0932143 64.379 -0.612501 69.8668 4.41836C77.1385 11.0847 74.1932 23.1943 74.7891 32.0834C74.9681 34.7526 74.9268 39.5567 74.7587 42.1363C75.1606 57.1554 74.3774 68.1944 55.724 68.4024C51.7033 68.4478 47.4634 68.546 43.4591 68.3936C34.6575 68.5885 25.6967 68.2721 16.8854 68.3951C12.3794 68.4581 7.16865 66.8468 4.05864 63.4542C-0.211377 58.7989 -0.014798 52.2115 0.037792 46.2994C0.052442 43.5836 -0.0469885 40.815 0.0581815 38.0972ZM7.05853 25.2221C7.35487 30.4485 7.0808 35.9793 7.07171 41.2354C7.06849 43.1764 6.91204 45.2652 7.13353 47.1871C7.28397 48.4937 7.81878 49.9454 9.04749 50.5943C12.1059 52.213 26.7147 50.5006 31.6502 51.4703C35.0098 52.131 37.8471 53.7731 40.4823 55.8824L40.4971 46.7872C27.5496 54.4205 14.1579 36.5176 24.5833 25.4425C27.0202 22.8549 30.3807 21.335 33.9331 21.2135C36.3182 21.1491 39.6093 21.6713 41.4138 23.3724C42.1327 23.395 44.0053 21.7283 44.9258 21.1626C47.6788 19.448 50.681 18.1706 53.8254 17.3759C54.0117 17.304 54.1947 17.2223 54.3787 17.1435C54.0201 17.005 51.2603 17.1312 50.6631 17.1379C41.4794 17.8828 46.6311 12.1778 38.8393 11.5207C38.2458 11.6009 36.4948 11.5626 35.8109 11.5618C33.7456 11.5504 31.6803 11.5547 29.6152 11.5743C23.2654 13.0611 26.8251 17.0099 21.8218 18.5474C18.0139 19.7175 10.5394 16.9667 7.89611 21.1415C7.07638 22.5753 7.11991 23.6651 7.05853 25.2221ZM43.3259 25.7241C43.695 29.0033 43.0891 51.671 43.5841 52.2525L43.6462 52.2686C44.1793 51.5362 46.0264 50.3014 46.8377 49.7608C52.6641 45.8761 58.722 45.5274 65.3883 44.7555C65.3026 38.1562 65.2758 31.5562 65.3082 24.9562C65.3058 22.6722 65.2103 19.9231 65.3858 17.6991C63.3347 17.8013 61.2974 17.9214 59.2675 18.252C57.8 18.491 56.3324 18.9125 54.8759 19.1443C52.3407 19.9555 43.8073 22.9822 43.3259 25.7241ZM67.2799 28.0779C67.3177 32.2001 67.3279 36.3225 67.3105 40.4444C67.3094 41.9605 67.388 45.6168 67.2126 46.9571C57.719 47.1812 50.6672 48.1876 43.6273 55.2027C45.3819 54.2447 47.2637 53.1944 49.1628 52.4518C55.2525 50.067 62.2663 49.8268 68.5672 51.504C68.8933 51.5919 69.3082 51.8116 69.6022 51.9816C69.3953 45.4264 69.6223 38.7877 69.5354 32.2237C69.5198 31.0415 69.5094 29.7965 69.5467 28.617C69.5546 26.3144 69.379 23.9812 69.3737 21.6552C68.7194 21.7564 67.9612 21.7959 67.2934 21.8475C67.3197 23.9242 67.3152 26.0012 67.2799 28.0779ZM33.9286 27.4283C31.7946 27.7385 30.1423 28.5672 28.8106 30.3442C27.7591 31.7441 27.237 33.4712 27.3369 35.2193L27.4875 35.4523C29.2089 33.7744 33.6326 29.8566 34.071 27.7366C33.9557 27.4295 34.0089 27.4889 33.9286 27.4283ZM16.1088 17.3939C17.0806 17.391 18.0207 17.481 18.8447 16.9415L18.8803 16.6762C17.8518 15.6227 15.1288 15.7001 13.7313 15.845C12.4897 16.3328 11.7271 16.6885 10.6039 17.4358C12.6254 17.3286 14.0898 17.3498 16.1088 17.3939ZM35.3423 45.2433C33.4465 45.0279 31.9932 44.7994 30.2804 43.8971C26.5133 41.9151 24.5149 37.8089 24.9966 33.6042C25.2998 31.0599 26.5995 28.7397 28.6109 27.1523C32.4176 24.1902 36.6522 24.7283 40.9169 26.1496C38.9788 24.3777 36.5729 23.08 33.8482 23.4892C21.1566 24.4685 19.3871 41.6368 30.9456 45.7237C31.4294 45.8951 33.335 46.4093 33.7437 46.4386C35.4261 46.5601 38.4053 45.6988 39.6941 44.6134C39.1409 44.6017 38.7353 44.8609 38.173 44.981C37.2403 45.1817 36.2942 45.2696 35.3423 45.2433Z" fill="#373AD3"/>
<path d="M14.5001 21.8515C15.6421 21.5658 16.8495 21.9174 17.6598 22.7714C18.47 23.6254 18.7575 24.8495 18.4122 25.975C18.067 27.1004 17.1422 27.9528 15.9925 28.2053C14.2499 28.5884 12.5227 27.5009 12.1147 25.7641C11.7068 24.027 12.7692 22.2845 14.5001 21.8515Z" fill="#373AD3"/>
<path d="M49.0443 0.133836C55.8058 -0.0932143 64.379 -0.612501 69.8668 4.41836C77.1386 11.0847 74.1932 23.1943 74.7891 32.0834C74.9681 34.7526 74.9268 39.5567 74.7588 42.1363C75.1606 57.1554 74.3775 68.1944 55.724 68.4024C51.7033 68.4479 47.4635 68.546 43.4592 68.3936C43.1882 68.3306 43.0015 68.2721 42.7366 68.1856C42.075 67.169 42.1487 66.3033 41.6548 65.3585C41.1753 64.462 40.6903 64.0211 40.2643 63.0543C38.7611 59.6456 42.8414 57.5333 42.7702 54.1436C42.7606 53.6807 43.6563 52.9161 43.6462 52.2686C44.1793 51.5362 46.0264 50.3014 46.8377 49.7608C52.6641 45.8761 58.722 45.5274 65.3883 44.7555C65.3026 38.1562 65.2758 31.5562 65.3082 24.9562C65.3058 22.6722 65.2103 19.9231 65.3858 17.6991C63.3348 17.8013 61.2974 17.9214 59.2675 18.252C57.8 18.491 56.3324 18.9125 54.8759 19.1443C54.0163 18.884 53.5931 19.4629 52.5715 19.4819C52.6553 18.9641 52.7464 18.7272 52.5397 18.2197L52.6806 17.9679C53.2115 17.7833 53.3924 17.727 53.8254 17.3759C54.0118 17.304 54.1947 17.2223 54.3787 17.1435C54.0201 17.005 51.2603 17.1312 50.6631 17.1379C41.4794 17.8828 46.6311 12.1778 38.8393 11.5206C38.3852 11.2624 37.5429 11.2376 36.9706 11.17C36.7335 10.7261 37.0037 8.83267 36.9115 8.19517C36.5779 5.88965 36.5159 3.23169 35.7866 1.04117C35.6463 0.619589 35.6044 0.78717 35.6474 0.40455C36.3809 0.37511 36.9211 0.401175 37.6182 0.139115C40.901 0.0222253 45.7663 0.0119557 49.0443 0.133836ZM67.2799 28.0779C67.3177 32.2002 67.3279 36.3225 67.3105 40.4444C67.3095 41.9605 67.388 45.6168 67.2126 46.9571C57.719 47.1813 50.6672 48.1876 43.6273 55.2028C45.3819 54.2447 47.2637 53.1944 49.1628 52.4518C55.2525 50.067 62.2663 49.8268 68.5672 51.504C68.8933 51.5919 69.3082 51.8116 69.6022 51.9816C69.3953 45.4264 69.6223 38.7877 69.5354 32.2237C69.5198 31.0415 69.5094 29.7965 69.5467 28.617C69.5546 26.3144 69.379 23.9812 69.3737 21.6552C68.7194 21.7564 67.9612 21.796 67.2934 21.8475C67.3197 23.9242 67.3152 26.0012 67.2799 28.0779Z" fill="#9D25B9"/>
<path d="M49.0443 0.133836C55.8058 -0.0932143 64.379 -0.612501 69.8668 4.41836C77.1386 11.0847 74.1932 23.1943 74.7891 32.0834C74.9681 34.7526 74.9268 39.5567 74.7588 42.1363C74.526 41.7994 74.6266 32.2902 74.6287 31.0811C73.0812 28.1558 71.0826 29.5518 70.0976 27.5871L69.8923 27.624C69.7659 28.8385 69.8264 30.7841 69.8243 32.0788L69.8227 40.2247C69.1988 36.8919 70.2197 31.8878 69.5467 28.617C69.5546 26.3144 69.379 23.9812 69.3737 21.6552C68.7194 21.7564 67.9612 21.7959 67.2933 21.8475C67.3197 23.9242 67.3152 26.0012 67.2799 28.0779C67.1788 28.9189 67.0875 31.3666 67.1332 32.1673L67.1447 32.3444C66.5007 31.0785 67.545 22.6911 66.7511 21.6889C65.8451 21.6402 65.8877 21.7529 65.6107 20.9128C65.5181 21.0316 65.5448 31.3126 65.513 32.3224C65.1465 30.2476 65.7452 27.1839 65.3082 24.9562C65.3058 22.6722 65.2103 19.9231 65.3858 17.6991C63.3348 17.8013 61.2974 17.9214 59.2675 18.252C57.8 18.491 56.3324 18.9125 54.8759 19.1443C54.0163 18.884 53.5931 19.4629 52.5715 19.4819C52.6553 18.9641 52.7464 18.7272 52.5397 18.2197L52.6806 17.9679C53.2115 17.7833 53.3924 17.727 53.8254 17.3759C54.0118 17.304 54.1947 17.2223 54.3787 17.1434C54.0201 17.005 51.2603 17.1311 50.6631 17.1379C41.4794 17.8827 46.6311 12.1778 38.8393 11.5206C38.3852 11.2624 37.5429 11.2376 36.9706 11.17C36.7335 10.7261 37.0037 8.83265 36.9115 8.19515C36.5779 5.88963 36.5159 3.23167 35.7866 1.04115C35.6463 0.619574 35.6044 0.787154 35.6474 0.404534C36.3809 0.375094 36.9211 0.401168 37.6182 0.139108C40.901 0.0222176 45.7663 0.0119557 49.0443 0.133836Z" fill="#F0519C"/>
<path d="M37.6182 0.139114C40.901 0.0222238 45.7663 0.0119619 49.0443 0.133842C48.3755 0.280762 47.7867 0.325303 47.1079 0.378623C47.4362 2.23619 47.7093 3.66047 47.7809 5.5425C47.8992 8.65529 48.1562 14.2577 49.9195 16.8508C50.1787 16.9612 50.3978 17.043 50.6631 17.1379C41.4794 17.8828 46.6311 12.1778 38.8393 11.5207C38.3852 11.2624 37.5429 11.2377 36.9706 11.17C36.7335 10.7261 37.0037 8.83268 36.9114 8.19518C36.5779 5.88966 36.5159 3.2317 35.7866 1.04118C35.6463 0.619603 35.6044 0.787183 35.6474 0.404563C36.3809 0.375123 36.9211 0.401174 37.6182 0.139114Z" fill="#B272D1"/>
<path d="M0.0581815 38.0972C-0.0735085 32.8209 0.0987625 27.4896 0.0255125 22.2127C-0.0631075 15.8266 -0.200658 9.03334 4.92951 4.34687C9.16276 0.479681 14.8981 0.115518 20.3493 0.131928C22.3001 0.139398 24.2769 0.0274923 26.2509 0.139992C29.0177 0.0551823 34.8393 -0.00913269 37.6182 0.139107C36.9211 0.401167 36.3809 0.375102 35.6474 0.404542C35.6043 0.787162 35.6462 0.619581 35.7866 1.04116C36.5159 3.23169 36.5779 5.88965 36.9114 8.19516C37.0037 8.83266 36.7335 10.7261 36.9706 11.17C37.5429 11.2376 38.3852 11.2624 38.8393 11.5206C38.2458 11.6009 36.4948 11.5625 35.8109 11.5618C33.7456 11.5504 31.6803 11.5546 29.6152 11.5743C23.2654 13.0611 26.8251 17.0098 21.8218 18.5473C18.0139 19.7175 10.5394 16.9666 7.8961 21.1414C7.07637 22.5752 7.11988 23.6651 7.0585 25.2221C6.72539 25.7816 6.96988 33.5296 6.83672 34.981C6.79893 33.2664 7.01807 23.2567 6.71939 22.5363C5.86436 21.8553 1.63345 22.1832 0.698742 23.1505C-0.127718 25.1362 0.437122 32.0399 0.276722 34.4882C0.194542 35.7413 0.471852 36.6793 0.0581815 38.0972ZM10.6039 17.4358C12.6254 17.3286 14.0898 17.3499 16.1088 17.394C17.0806 17.391 18.0207 17.481 18.8447 16.9415L18.8803 16.6762C17.8518 15.6227 15.1288 15.7002 13.7313 15.845C12.4897 16.3328 11.7271 16.6885 10.6039 17.4358Z" fill="#1687FC"/>
<path d="M26.2509 0.139992C29.0177 0.0551823 34.8393 -0.00913269 37.6182 0.139107C36.9211 0.401167 36.3809 0.375102 35.6474 0.404542C35.6044 0.787162 35.6463 0.619581 35.7866 1.04116C36.516 3.23169 36.5779 5.88965 36.9114 8.19516C37.0037 8.83266 36.7335 10.7261 36.9706 11.17C37.5429 11.2376 38.3852 11.2624 38.8393 11.5206C38.2458 11.6009 36.4948 11.5625 35.8109 11.5618C33.7456 11.5504 31.6803 11.5546 29.6152 11.5743L29.6058 11.5275C29.8587 11.2609 32.958 11.2757 33.7152 11.2056L33.9588 10.891C33.9762 10.3231 33.9867 9.4971 33.8926 8.96507C33.5958 7.2887 31.5487 1.73416 30.7067 0.405106C29.4024 0.00769615 27.6717 0.504892 26.2509 0.139992Z" fill="#7F87EA"/>
<path d="M41.4138 23.3724C42.1328 23.395 44.0053 21.7283 44.9258 21.1626C47.6788 19.448 50.681 18.1706 53.8254 17.3759C53.3924 17.7271 53.2115 17.7833 52.6806 17.9679L52.5397 18.2197C52.7464 18.7273 52.6553 18.9641 52.5715 19.482C53.5931 19.4629 54.0163 18.884 54.8759 19.1443C52.3407 19.9555 43.8074 22.9822 43.3259 25.7241C42.8946 27.8686 43.5323 40.4781 43.1474 41.2018C42.9895 39.901 43.1337 38.6486 43.1095 37.271C43.0437 33.4664 43.039 29.6609 43.0953 25.8561C43.1101 25.0801 43.1993 24.0115 42.6528 23.4423C42.0151 23.4301 41.9593 23.6475 41.2903 23.4688L41.4138 23.3724Z" fill="#9D25B9"/>
<path d="M170.359 19.9618L171.024 19.8928C171.222 20.1452 171.165 29.8721 171.172 31.2315C174.42 27.9156 179.671 28.4664 182.052 32.4722C183.894 35.571 183.97 40.2408 183.124 43.6642C182.476 46.2833 180.934 48.1187 178.662 49.5001C174.837 51.526 165.465 51.4937 164.963 45.734C164.709 42.8277 164.778 39.9054 164.783 36.9815L164.794 20.9732C166.663 20.6797 168.487 20.2495 170.359 19.9618ZM174.395 45.6388C176.818 44.36 177.097 42.1319 177.118 39.5963C177.137 37.3183 176.79 34.2842 173.979 34.0053C171.084 34.4761 171.116 37.0488 171.106 39.4732C171.099 41.3409 171.073 43.2496 171.295 45.1012C171.434 46.1939 173.667 45.8351 174.395 45.6388Z" fill="url(#paint0_linear_2_6)"/>
<path d="M214.895 29.1868C230.093 27.0172 230.1 49.6334 218.466 50.5079C218.273 50.546 218.078 50.5782 217.883 50.6046C207.278 51.9581 203.424 40.525 208.445 32.5751C209.758 30.498 212.525 29.5072 214.895 29.1868ZM217.325 45.8453C219.593 44.9855 220.08 42.5919 220.146 40.3932C220.234 37.4436 219.642 33.7062 215.895 33.8567C212.443 34.9284 212.698 40.2642 213.399 43.1207C213.896 45.1392 215.366 45.8937 217.325 45.8453Z" fill="url(#paint1_linear_2_6)"/>
<path d="M193.666 29.1936C196.473 28.999 199.269 29.3664 201.54 31.159C206.139 34.79 206.148 43.9352 202.164 48.0162C200.576 49.6407 198.317 50.3834 196.098 50.6002C194.022 51.1363 190.08 50.1256 188.399 48.7413C186.278 47.045 185.166 44.7921 184.902 42.0865C184.255 35.4483 186.429 29.9819 193.666 29.1936ZM195.298 45.9259C198.925 45.129 198.72 40.1134 198.155 37.2351C197.774 35.3001 196.757 34.0665 194.761 33.8565C192.182 34.3062 191.538 36.3848 191.368 38.776C191.151 41.8111 191.453 45.6988 195.298 45.9259Z" fill="url(#paint2_linear_2_6)"/>
<path d="M234.798 19.8257L234.893 19.8298C235.101 20.2331 235.026 35.9551 235.012 37.7112C236.708 35.0683 238.732 32.2214 240.513 29.5926C242.936 29.6263 245.359 29.6223 247.782 29.5806C246.99 30.4516 245.863 32.1272 245.157 33.1257C243.787 35.0428 242.438 36.9751 241.111 38.9225C241.665 39.6725 242.221 40.4913 242.725 41.2794C244.558 44.1432 246.685 46.8824 248.482 49.7594L248.35 49.9205L247.663 49.9264L241.297 49.9191C239.188 46.9103 237.049 43.462 235.042 40.3609C234.953 43.4503 235.004 46.8356 234.998 49.9498C232.937 49.8722 230.706 49.9279 228.629 49.944L228.607 20.9174C230.573 20.6392 232.801 20.1685 234.798 19.8257Z" fill="url(#paint3_linear_2_6)"/>
<path d="M150.956 29.193L151.111 29.1826C153.705 29.0233 156.685 29.0343 158.725 30.9026C159.484 31.6075 160.035 32.5063 160.321 33.5017C160.927 35.5615 160.744 43.1515 160.817 45.8307L162.125 46.3141C162.27 47.4083 162.428 48.4996 162.601 49.5894C160.019 50.6646 156.922 51.3605 155.585 48.2462C152.692 50.8097 149.446 51.3824 145.961 49.4884C144.585 48.4689 143.681 47.1725 143.446 45.4762C142.699 40.0167 147.017 37.8572 151.681 37.5647C152.62 37.5058 154.331 37.7767 154.83 37.0438C154.883 36.4215 154.795 36.3029 154.578 35.715C153.273 32.1711 148.247 34.2988 145.715 35.6592C145.359 34.8276 144.749 33.3101 144.522 32.4574C143.935 30.262 149.58 29.3792 150.956 29.193ZM151.479 45.9816C155.056 45.8497 154.852 43.6686 154.89 40.8605C154.467 40.8707 153.68 40.8649 153.291 40.9132C151.659 41.1417 149.372 41.7364 149.333 44.0524C149.315 45.0294 150.565 45.7604 151.479 45.9816Z" fill="url(#paint4_linear_2_6)"/>
<path d="M100.888 32.0529C102.201 30.4019 103.289 29.4073 105.492 29.1801C107.129 29.0198 108.926 29.1137 110.233 30.2466C112.929 32.5825 112.422 36.8837 112.469 40.0811C112.518 43.3844 112.303 46.714 112.569 49.9879C110.535 49.9146 108.499 49.9029 106.464 49.9542C106.467 46.0562 106.526 41.9606 106.425 38.0805C106.391 36.15 105.885 32.3604 102.4 34.5414C100.923 35.4659 101.209 40.0152 101.217 41.9327L101.242 49.944C99.253 49.9132 97.264 49.9161 95.2755 49.9527C95.4765 43.5514 95.2067 36.5301 95.2434 30.0335C96.5854 29.9888 99.063 29.4424 100.548 29.2123L100.809 29.4342C100.939 30.383 100.906 31.098 100.888 32.0529Z" fill="url(#paint5_linear_2_6)"/>
<path d="M120.318 29.1915C122.233 29.0698 126.667 29.2593 127.827 30.9505C128.044 31.9546 127.227 34.0636 126.891 35.1297C125.056 33.9511 122.11 32.8595 120.055 34.3851C119.757 34.6067 119.811 34.9092 119.819 35.2277C121.208 38.0462 128.815 37.5906 129.039 43.172C129.251 48.4674 125.78 50.3292 121.132 50.606C118.969 51.0352 115.694 49.6978 113.84 48.5626C114.247 47.3131 114.638 45.7545 114.998 44.4669C116.664 45.2096 123.144 47.5152 123.401 44.2179C122.382 41.8067 114.535 41.6602 114.133 36.6938C113.76 32.0775 115.791 29.8214 120.318 29.1915Z" fill="url(#paint6_linear_2_6)"/>
<path d="M137.553 24.1949L137.923 24.2261C138.172 24.9303 138.056 28.8697 138.043 29.8649L142.857 29.8608C142.918 31.3198 142.877 32.949 142.87 34.4209C141.458 34.3864 139.4 34.2767 138.042 34.4009C138.036 37.6334 137.821 41.2721 138.316 44.4274C138.607 46.2892 140.758 45.8307 141.982 45.4513L142.848 49.6481C141.736 50.1285 140.898 50.3907 139.704 50.5372C139.338 50.5563 138.972 50.565 138.606 50.5665C133.851 50.5958 132.02 48.1817 132.01 43.6085C132.002 40.5514 132.027 37.4696 132.045 34.4118L129.074 34.4324C129.08 32.9604 129.133 31.3267 128.969 29.8772C129.871 29.956 131.066 29.9058 131.995 29.8917C132.013 28.2886 132.024 26.9274 131.925 25.3214C133.795 24.9249 135.672 24.5493 137.553 24.1949Z" fill="url(#paint7_linear_2_6)"/>
<path d="M92.2899 19.9629L92.5137 19.9341C92.8021 20.3461 92.6596 46.9205 92.665 49.9571C90.7235 49.8927 88.8378 49.9352 86.8966 49.9689C86.6978 49.9586 86.8174 49.9806 86.556 49.837C86.4544 49.1676 86.5399 42.775 86.539 41.7848L86.5209 21.0007C88.3965 20.6433 90.4125 20.2155 92.2899 19.9629Z" fill="url(#paint8_linear_2_6)"/>
<defs>
<linearGradient id="paint0_linear_2_6" x1="176.749" y1="21.8122" x2="169.441" y2="49.8531" gradientUnits="userSpaceOnUse">
<stop stop-color="#FF4B78"/>
<stop offset="1" stop-color="#B21B97"/>
</linearGradient>
<linearGradient id="paint1_linear_2_6" x1="216.216" y1="29.2684" x2="216.745" y2="50.2354" gradientUnits="userSpaceOnUse">
<stop stop-color="#FF427C"/>
<stop offset="1" stop-color="#C01B90"/>
</linearGradient>
<linearGradient id="paint2_linear_2_6" x1="195.475" y1="29.3872" x2="194.213" y2="50.2706" gradientUnits="userSpaceOnUse">
<stop stop-color="#FF417D"/>
<stop offset="1" stop-color="#BD1C92"/>
</linearGradient>
<linearGradient id="paint3_linear_2_6" x1="239.728" y1="20.6301" x2="237.344" y2="50.1725" gradientUnits="userSpaceOnUse">
<stop stop-color="#FF5179"/>
<stop offset="1" stop-color="#C31A8F"/>
</linearGradient>
<linearGradient id="paint4_linear_2_6" x1="153.297" y1="50.694" x2="151.096" y2="29.3409" gradientUnits="userSpaceOnUse">
<stop stop-color="#2237C7"/>
<stop offset="1" stop-color="#0077FE"/>
</linearGradient>
<linearGradient id="paint5_linear_2_6" x1="103.507" y1="49.7154" x2="104.076" y2="29.2041" gradientUnits="userSpaceOnUse">
<stop stop-color="#183ECE"/>
<stop offset="1" stop-color="#007AFF"/>
</linearGradient>
<linearGradient id="paint6_linear_2_6" x1="121.626" y1="50.2589" x2="120.748" y2="29.3834" gradientUnits="userSpaceOnUse">
<stop stop-color="#1A3DCC"/>
<stop offset="1" stop-color="#0078FF"/>
</linearGradient>
<linearGradient id="paint7_linear_2_6" x1="137.374" y1="50.4215" x2="135.251" y2="24.5975" gradientUnits="userSpaceOnUse">
<stop stop-color="#1A3CCB"/>
<stop offset="1" stop-color="#007FFF"/>
</linearGradient>
<linearGradient id="paint8_linear_2_6" x1="88.6837" y1="49.7535" x2="90.4921" y2="20.0986" gradientUnits="userSpaceOnUse">
<stop stop-color="#183CD2"/>
<stop offset="1" stop-color="#008DFF"/>
</linearGradient>
</defs>
</svg>
