<svg id="svg" version="1.1" viewBox="0 0 300 300" width="300" height="300" xmlns="http://www.w3.org/2000/svg"><svg xmlns="http://www.w3.org/2000/svg"><defs><clipPath id="clip-1"><rect x="0" y="0" transform="scale(0.14648,0.14648)" width="2048" height="2048" fill="none"/></clipPath><linearGradient x1="198.94629" y1="129.78281" x2="191.63818" y2="157.82373" gradientUnits="userSpaceOnUse" id="color-1"><stop offset="0" stop-color="#ff4b78"/><stop offset="1" stop-color="#b21b97"/></linearGradient><linearGradient x1="238.41357" y1="137.23901" x2="238.94238" y2="158.20605" gradientUnits="userSpaceOnUse" id="color-2"><stop offset="0" stop-color="#ff427c"/><stop offset="1" stop-color="#c01b90"/></linearGradient><linearGradient x1="217.67285" y1="137.35781" x2="216.41016" y2="158.24121" gradientUnits="userSpaceOnUse" id="color-3"><stop offset="0" stop-color="#ff417d"/><stop offset="1" stop-color="#bd1c92"/></linearGradient><linearGradient x1="261.92578" y1="128.60068" x2="259.54102" y2="158.14307" gradientUnits="userSpaceOnUse" id="color-4"><stop offset="0" stop-color="#ff5179"/><stop offset="1" stop-color="#c31a8f"/></linearGradient><linearGradient x1="175.49414" y1="158.66455" x2="173.29395" y2="137.31152" gradientUnits="userSpaceOnUse" id="color-5"><stop offset="0" stop-color="#2237c7"/><stop offset="1" stop-color="#0077fe"/></linearGradient><linearGradient x1="125.70454" y1="157.68604" x2="126.27334" y2="137.17471" gradientUnits="userSpaceOnUse" id="color-6"><stop offset="0" stop-color="#183ece"/><stop offset="1" stop-color="#007aff"/></linearGradient><linearGradient x1="143.82305" y1="158.22949" x2="142.94502" y2="137.354" gradientUnits="userSpaceOnUse" id="color-7"><stop offset="0" stop-color="#1a3dcc"/><stop offset="1" stop-color="#0078ff"/></linearGradient><linearGradient x1="159.57129" y1="158.39209" x2="157.44873" y2="132.56807" gradientUnits="userSpaceOnUse" id="color-8"><stop offset="0" stop-color="#1a3ccb"/><stop offset="1" stop-color="#007fff"/></linearGradient><linearGradient x1="110.8812" y1="157.72412" x2="112.68955" y2="128.06924" gradientUnits="userSpaceOnUse" id="color-9"><stop offset="0" stop-color="#183cd2"/><stop offset="1" stop-color="#008dff"/></linearGradient></defs><g clip-path="url(#clip-1)" fill="none" fill-rule="nonzero" stroke="none" stroke-width="1" stroke-linecap="butt" stroke-linejoin="miter" stroke-miterlimit="10" stroke-dasharray="" stroke-dashoffset="0" font-family="none" font-weight="none" font-size="none" text-anchor="none" style="mix-blend-mode: normal"><path d="M22.25566,146.06777c-0.13169,-5.27622 0.04058,-10.60752 -0.03267,-15.88447c-0.08862,-6.38613 -0.22617,-13.17935 4.904,-17.86582c4.23325,-3.86719 9.96855,-4.23135 15.41982,-4.21494c1.95073,0.00747 3.92754,-0.10444 5.90156,0.00806c2.7668,-0.08481 8.58838,-0.14912 11.36733,-0.00088c3.28271,-0.11689 8.14805,-0.12715 11.42607,-0.00527c6.76143,-0.22705 15.33472,-0.74634 20.82246,4.28452c7.27178,6.66636 4.32642,18.77593 4.92231,27.66504c0.179,2.66924 0.1377,7.47334 -0.03032,10.05293c0.40181,15.01904 -0.3813,26.05811 -19.03477,26.26611c-4.0207,0.04541 -8.26055,0.14355 -12.26484,-0.00879c-8.80166,0.19482 -17.7624,-0.12158 -26.57373,0.00146c-4.50601,0.06299 -9.71675,-1.54834 -12.82676,-4.94092c-4.27002,-4.65527 -4.07344,-11.24268 -4.02085,-17.15479c0.01465,-2.71582 -0.08481,-5.48437 0.02036,-8.20225zM29.25601,133.19268c0.29634,5.22642 0.02227,10.75723 0.01318,16.01338c-0.00322,1.94092 -0.15967,4.02979 0.06182,5.95166c0.15044,1.30664 0.68525,2.7583 1.91396,3.40723c3.05845,1.61865 17.66719,-0.09375 22.60269,0.87598c3.35962,0.66064 6.19687,2.30273 8.83213,4.41211l0.01479,-9.09521c-12.94746,7.6333 -26.33921,-10.26958 -15.91377,-21.34468c2.43691,-2.58765 5.79741,-4.10757 9.3498,-4.229c2.38506,-0.06445 5.67612,0.45776 7.48066,2.15889c0.71895,0.02256 2.59146,-1.64414 3.51196,-2.20986c2.75303,-1.7146 5.75522,-2.99194 8.89966,-3.78662c0.18633,-0.07192 0.36929,-0.15366 0.55327,-0.23247c-0.35859,-0.13843 -3.11836,-0.0123 -3.71558,-0.00557c-9.18369,0.74487 -4.03198,-4.96011 -11.82378,-5.61724c-0.59355,0.08027 -2.34448,0.04189 -3.02842,0.04116c-2.06528,-0.01143 -4.13057,-0.00718 -6.1957,0.01245c-6.3498,1.48682 -2.79009,5.4356 -7.79341,6.9731c-3.80786,1.17012 -11.28237,-1.58071 -13.92568,2.59409c-0.81973,1.43379 -0.77622,2.52363 -0.8376,4.08062zM65.52334,133.69468c0.36914,3.2792 -0.23672,25.94692 0.25825,26.52847l0.06211,0.01611c0.53306,-0.73242 2.38022,-1.96729 3.19146,-2.50781c5.82642,-3.88477 11.88428,-4.2334 18.55063,-5.00537c-0.08569,-6.59927 -0.1125,-13.19927 -0.08013,-19.79927c-0.00234,-2.28398 -0.09785,-5.03306 0.07764,-7.25713c-2.05107,0.10225 -4.08838,0.22236 -6.11836,0.55298c-1.46748,0.23892 -2.93511,0.6605 -4.3916,0.89224c-2.53521,0.81123 -11.06851,3.83789 -11.55,6.57979zM89.47734,136.04854c0.03779,4.12222 0.04805,8.24458 0.03062,12.3665c-0.00103,1.51611 0.07749,5.17236 -0.09785,6.5127c-9.49365,0.22412 -16.54541,1.23047 -23.5853,8.24561c1.75459,-0.95801 3.63633,-2.0083 5.5355,-2.75098c6.08965,-2.38477 13.10347,-2.625 19.40435,-0.94775c0.32607,0.08789 0.74106,0.30762 1.03506,0.47754c-0.20698,-6.55518 0.02007,-13.19385 -0.0668,-19.75781c-0.01567,-1.18228 -0.02607,-2.42725 0.01128,-3.60674c0.00791,-2.30259 -0.16772,-4.63579 -0.173,-6.96182c-0.65435,0.10122 -1.41255,0.14077 -2.08037,0.19233c0.02637,2.07671 0.02183,4.15371 -0.01348,6.23042zM56.12607,135.39888c-2.13398,0.31025 -3.78633,1.13892 -5.11802,2.91592c-1.05146,1.39995 -1.57354,3.127 -1.47363,4.87515l0.15059,0.23291c1.72134,-1.67783 6.14502,-5.5957 6.58345,-7.71562c-0.11528,-0.30718 -0.06211,-0.24771 -0.14238,-0.30835zM38.30625,125.36455c0.97178,-0.00293 1.91191,0.08701 2.73589,-0.45249l0.0356,-0.26528c-1.02847,-1.05352 -3.75146,-0.97603 -5.14893,-0.83115c-1.2416,0.48779 -2.0042,0.84346 -3.12744,1.59082c2.02148,-0.10723 3.48589,-0.08599 5.50488,-0.04189zM57.53979,153.21387c-1.8958,-0.21533 -3.34907,-0.44385 -5.06191,-1.34619c-3.76714,-1.98193 -5.76548,-6.08818 -5.28384,-10.29287c0.30322,-2.54429 1.60298,-4.86445 3.61436,-6.4519c3.80669,-2.96206 8.04126,-2.42402 12.30601,-1.00269c-1.93813,-1.77187 -4.34399,-3.06958 -7.06875,-2.66045c-12.69155,0.97939 -14.46108,18.14766 -2.90259,22.23457c0.48384,0.17139 2.38945,0.68555 2.79814,0.71484c1.68237,0.12158 4.66157,-0.73975 5.95034,-1.8252c-0.55313,-0.01172 -0.95874,0.24756 -1.52109,0.36768c-0.93267,0.20068 -1.87881,0.28857 -2.83066,0.26221z" fill="#373ad3"/><path d="M36.69756,129.82207c1.14199,-0.28564 2.34946,0.06592 3.15967,0.91992c0.81021,0.854 1.09775,2.07817 0.75249,3.20361c-0.34526,1.12544 -1.27002,1.97783 -2.41978,2.23037c-1.74258,0.38306 -3.46978,-0.70444 -3.87773,-2.44131c-0.40796,-1.73701 0.65449,-3.47959 2.38535,-3.9126z" fill="#373ad3"/><path d="M71.2418,108.10444c6.76143,-0.22705 15.33472,-0.74634 20.82246,4.28452c7.27178,6.66636 4.32642,18.77593 4.92231,27.66504c0.179,2.66924 0.1377,7.47334 -0.03032,10.05293c0.40181,15.01904 -0.3813,26.05811 -19.03477,26.26611c-4.0207,0.04541 -8.26055,0.14355 -12.26484,-0.00879c-0.271,-0.06299 -0.45762,-0.12158 -0.72261,-0.20801c-0.66152,-1.0166 -0.58784,-1.88232 -1.08179,-2.82715c-0.47944,-0.89648 -0.96445,-1.3374 -1.39043,-2.3042c-1.50322,-3.40869 2.5771,-5.521 2.50591,-8.91064c-0.00967,-0.46289 0.88608,-1.22754 0.87598,-1.875c0.53306,-0.73242 2.38022,-1.96729 3.19146,-2.50781c5.82642,-3.88477 11.88428,-4.2334 18.55063,-5.00537c-0.08569,-6.59927 -0.1125,-13.19927 -0.08013,-19.79927c-0.00234,-2.28398 -0.09785,-5.03306 0.07764,-7.25713c-2.05107,0.10225 -4.08838,0.22236 -6.11836,0.55298c-1.46748,0.23892 -2.93511,0.6605 -4.3916,0.89224c-0.85957,-0.2603 -1.28276,0.3186 -2.30435,0.33765c0.08379,-0.51782 0.1749,-0.75469 -0.03179,-1.26226l0.14092,-0.25181c0.53086,-0.18457 0.71177,-0.24082 1.14478,-0.59194c0.18633,-0.07192 0.36929,-0.15366 0.55327,-0.23247c-0.35859,-0.13843 -3.11836,-0.0123 -3.71558,-0.00557c-9.18369,0.74487 -4.03198,-4.96011 -11.82378,-5.61724c-0.4541,-0.25825 -1.29639,-0.28301 -1.8687,-0.35068c-0.23716,-0.44385 0.03311,-2.3373 -0.05918,-2.9748c-0.33354,-2.30552 -0.39551,-4.96348 -1.12485,-7.154c-0.14033,-0.42158 -0.18223,-0.254 -0.13916,-0.63662c0.73345,-0.02944 1.27368,-0.00337 1.9708,-0.26543c3.28271,-0.11689 8.14805,-0.12715 11.42607,-0.00527zM89.47734,136.04854c0.03779,4.12222 0.04805,8.24458 0.03062,12.3665c-0.00103,1.51611 0.07749,5.17236 -0.09785,6.5127c-9.49365,0.22412 -16.54541,1.23047 -23.5853,8.24561c1.75459,-0.95801 3.63633,-2.0083 5.5355,-2.75098c6.08965,-2.38477 13.10347,-2.625 19.40435,-0.94775c0.32607,0.08789 0.74106,0.30762 1.03506,0.47754c-0.20698,-6.55518 0.02007,-13.19385 -0.0668,-19.75781c-0.01567,-1.18228 -0.02607,-2.42725 0.01128,-3.60674c0.00791,-2.30259 -0.16772,-4.63579 -0.173,-6.96182c-0.65435,0.10122 -1.41255,0.14077 -2.08037,0.19233c0.02637,2.07671 0.02183,4.15371 -0.01348,6.23042z" fill="#9d25b9"/><path d="M71.2418,108.10444c6.76143,-0.22705 15.33472,-0.74634 20.82246,4.28452c7.27178,6.66636 4.32642,18.77593 4.92231,27.66504c0.179,2.66924 0.1377,7.47334 -0.03032,10.05293c-0.23276,-0.33691 -0.13213,-9.84609 -0.13008,-11.05518c-1.54746,-2.92529 -3.54609,-1.5293 -4.53105,-3.49409l-0.20537,0.03691c-0.12642,1.2145 -0.06592,3.16011 -0.06797,4.45488l-0.00161,8.14585c-0.62388,-3.33281 0.39697,-8.33687 -0.27598,-11.60771c0.00791,-2.30259 -0.16772,-4.63579 -0.173,-6.96182c-0.65435,0.10122 -1.41255,0.14077 -2.08037,0.19233c0.02637,2.07671 0.02183,4.15371 -0.01348,6.23042c-0.10107,0.84097 -0.19233,3.28872 -0.14663,4.0894l0.01143,0.1771c-0.64395,-1.26592 0.40034,-9.65332 -0.3936,-10.65557c-0.90601,-0.04863 -0.86338,0.06401 -1.14038,-0.77607c-0.09258,0.1188 -0.06592,10.3998 -0.09771,11.40967c-0.3665,-2.0748 0.23218,-5.13853 -0.20479,-7.36626c-0.00234,-2.28398 -0.09785,-5.03306 0.07764,-7.25713c-2.05107,0.10225 -4.08838,0.22236 -6.11836,0.55298c-1.46748,0.23892 -2.93511,0.6605 -4.3916,0.89224c-0.85957,-0.2603 -1.28276,0.3186 -2.30435,0.33765c0.08379,-0.51782 0.1749,-0.75469 -0.03179,-1.26226l0.14092,-0.25181c0.53086,-0.18457 0.71177,-0.24082 1.14478,-0.59194c0.18633,-0.07192 0.36929,-0.15366 0.55327,-0.23247c-0.35859,-0.13843 -3.11836,-0.0123 -3.71558,-0.00557c-9.18369,0.74487 -4.03198,-4.96011 -11.82378,-5.61724c-0.4541,-0.25825 -1.29639,-0.28301 -1.8687,-0.35068c-0.23716,-0.44385 0.03311,-2.3373 -0.05918,-2.9748c-0.33354,-2.30552 -0.39551,-4.96348 -1.12485,-7.154c-0.14033,-0.42158 -0.18223,-0.254 -0.13916,-0.63662c0.73345,-0.02944 1.27368,-0.00337 1.9708,-0.26543c3.28271,-0.11689 8.14805,-0.12715 11.42607,-0.00527z" fill="#f0519c"/><path d="M59.81572,108.10972c3.28271,-0.11689 8.14805,-0.12715 11.42607,-0.00527c-0.66885,0.14692 -1.25757,0.19146 -1.93638,0.24478c0.32827,1.85757 0.60132,3.28184 0.67295,5.16387c0.11836,3.11279 0.37529,8.71523 2.13867,11.3083c0.25913,0.11045 0.47827,0.19219 0.74355,0.28711c-9.18369,0.74487 -4.03198,-4.96011 -11.82378,-5.61724c-0.4541,-0.25825 -1.29639,-0.28301 -1.8687,-0.35068c-0.23716,-0.44385 0.03311,-2.3373 -0.05918,-2.9748c-0.33354,-2.30552 -0.39551,-4.96348 -1.12485,-7.154c-0.14033,-0.42158 -0.18223,-0.254 -0.13916,-0.63662c0.73345,-0.02944 1.27368,-0.00337 1.9708,-0.26543z" fill="#b272d1"/><path d="M22.25566,146.06777c-0.13169,-5.27622 0.04058,-10.60752 -0.03267,-15.88447c-0.08862,-6.38613 -0.22617,-13.17935 4.904,-17.86582c4.23325,-3.86719 9.96855,-4.23135 15.41982,-4.21494c1.95073,0.00747 3.92754,-0.10444 5.90156,0.00806c2.7668,-0.08481 8.58838,-0.14912 11.36733,-0.00088c-0.69712,0.26206 -1.23735,0.23599 -1.9708,0.26543c-0.04307,0.38262 -0.00117,0.21504 0.13916,0.63662c0.72935,2.19053 0.79131,4.84849 1.12485,7.154c0.09229,0.6375 -0.17798,2.53096 0.05918,2.9748c0.57231,0.06768 1.4146,0.09243 1.8687,0.35068c-0.59355,0.08027 -2.34448,0.04189 -3.02842,0.04116c-2.06528,-0.01143 -4.13057,-0.00718 -6.1957,0.01245c-6.3498,1.48682 -2.79009,5.4356 -7.79341,6.9731c-3.80786,1.17012 -11.28237,-1.58071 -13.92568,2.59409c-0.81973,1.43379 -0.77622,2.52363 -0.8376,4.08062c-0.33311,0.55957 -0.08862,8.30757 -0.22178,9.75894c-0.03779,-1.7146 0.18135,-11.72432 -0.11733,-12.44473c-0.85503,-0.68101 -5.08594,-0.35303 -6.02065,0.61421c-0.82646,1.98574 -0.26162,8.8894 -0.42202,11.33774c-0.08218,1.25303 0.19512,2.19111 -0.21855,3.60894zM32.80137,125.40645c2.02148,-0.10723 3.48589,-0.08599 5.50488,-0.04189c0.97178,-0.00293 1.91191,0.08701 2.73589,-0.45249l0.0356,-0.26528c-1.02847,-1.05352 -3.75146,-0.97603 -5.14893,-0.83115c-1.2416,0.48779 -2.0042,0.84346 -3.12744,1.59082z" fill="#1687fc"/><path d="M48.44839,108.1106c2.7668,-0.08481 8.58838,-0.14912 11.36733,-0.00088c-0.69712,0.26206 -1.23735,0.23599 -1.9708,0.26543c-0.04307,0.38262 -0.00117,0.21504 0.13916,0.63662c0.72935,2.19053 0.79131,4.84849 1.12485,7.154c0.09229,0.6375 -0.17798,2.53096 0.05918,2.9748c0.57231,0.06768 1.4146,0.09243 1.8687,0.35068c-0.59355,0.08027 -2.34448,0.04189 -3.02842,0.04116c-2.06528,-0.01143 -4.13057,-0.00718 -6.1957,0.01245l-0.00938,-0.04673c0.25283,-0.2666 3.35215,-0.25181 4.10933,-0.32197l0.2436,-0.3145c0.01743,-0.56792 0.02798,-1.39395 -0.06621,-1.92598c-0.29678,-1.67637 -2.3439,-7.23091 -3.18589,-8.55996c-1.3043,-0.39741 -3.03501,0.09976 -4.45576,-0.26514z" fill="#7f87ea"/><path d="M63.61128,131.34302c0.71895,0.02256 2.59146,-1.64414 3.51196,-2.20986c2.75303,-1.7146 5.75522,-2.99194 8.89966,-3.78662c-0.43301,0.35112 -0.61392,0.40737 -1.14478,0.59194l-0.14092,0.25181c0.20669,0.50757 0.11558,0.74443 0.03179,1.26226c1.02158,-0.01904 1.44478,-0.59795 2.30435,-0.33765c-2.53521,0.81123 -11.06851,3.83789 -11.55,6.57979c-0.43125,2.14453 0.2064,14.75405 -0.17842,15.47769c-0.15791,-1.30078 -0.01377,-2.55322 -0.03794,-3.93076c-0.06577,-3.80464 -0.07046,-7.61016 -0.01421,-11.41494c0.01479,-0.77593 0.104,-1.84453 -0.44253,-2.41377c-0.63765,-0.01216 -0.69346,0.20522 -1.36245,0.02651z" fill="#9d25b9"/><path d="M192.55664,127.93242l0.66504,-0.06899c0.19775,0.25239 0.14063,9.97925 0.14795,11.33862c3.24756,-3.31582 8.49902,-2.76504 10.87939,1.24072c1.84277,3.09888 1.91895,7.76865 1.07227,11.19199c-0.64746,2.61914 -2.18994,4.45459 -4.46191,5.83594c-3.82471,2.02588 -13.19678,1.99365 -13.69922,-3.76611c-0.25342,-2.90625 -0.18457,-5.82861 -0.18018,-8.75244l0.01172,-16.0084c1.86914,-0.29341 3.69287,-0.72363 5.56494,-1.01133zM196.59229,153.60938c2.42285,-1.27881 2.70264,-3.50684 2.72314,-6.04248c0.01904,-2.27798 -0.32812,-5.31211 -3.13916,-5.59102c-2.89453,0.4708 -2.8623,3.04351 -2.87256,5.46797c-0.00732,1.86768 -0.03369,3.77637 0.18896,5.62793c0.13916,1.09277 2.37158,0.73389 3.09961,0.5376z" fill="url(#color-1)"/><path d="M237.09229,137.15742c15.19775,-2.16958 15.20508,20.44658 3.57129,21.32109c-0.19336,0.03809 -0.38818,0.07031 -0.58301,0.09668c-10.60547,1.35352 -14.45947,-10.07959 -9.43799,-18.02944c1.3125,-2.07715 4.07959,-3.06797 6.44971,-3.38833zM239.52246,153.81592c2.26758,-0.85986 2.75537,-3.25342 2.82129,-5.45215c0.08789,-2.94961 -0.50391,-6.68701 -4.25098,-6.53643c-3.45264,1.07168 -3.19775,6.40752 -2.49609,9.26396c0.49658,2.01855 1.96729,2.77295 3.92578,2.72461z" fill="url(#color-2)"/><path d="M215.86377,137.16416c2.80664,-0.19453 5.60303,0.17285 7.87354,1.96538c4.59961,3.63105 4.6084,12.77622 0.62402,16.85728c-1.58789,1.62451 -3.84668,2.36719 -6.06592,2.58398c-2.07568,0.53613 -6.01758,-0.47461 -7.69922,-1.85889c-2.12109,-1.69629 -3.23291,-3.94922 -3.49658,-6.65479c-0.64746,-6.63823 1.52637,-12.10459 8.76416,-12.89297zM217.49561,153.89648c3.62695,-0.79687 3.42188,-5.8125 2.85645,-8.69077c-0.38086,-1.93506 -1.39746,-3.1686 -3.39404,-3.37866c-2.57812,0.44971 -3.22266,2.52832 -3.39258,4.91953c-0.2168,3.03516 0.08496,6.92285 3.93018,7.1499z" fill="url(#color-3)"/><path d="M256.99512,127.79634l0.09521,0.0041c0.20801,0.40327 0.1333,16.12529 0.11865,17.88135c1.69629,-2.64287 3.7207,-5.48979 5.50195,-8.1186c2.42285,0.03369 4.8457,0.02974 7.26855,-0.01201c-0.79248,0.871 -1.91895,2.54663 -2.625,3.54507c-1.36963,1.91719 -2.71875,3.84946 -4.0459,5.79683c0.55371,0.75 1.11035,1.56885 1.61426,2.35693c1.83252,2.86377 3.95947,5.60303 5.75684,8.47998l-0.13184,0.16113l-0.68701,0.00586l-6.36621,-0.00732c-2.10937,-3.00879 -4.24805,-6.45703 -6.25488,-9.55811c-0.08936,3.08936 -0.03809,6.47461 -0.04395,9.58887c-2.06104,-0.07764 -4.29199,-0.02197 -6.36914,-0.00586l-0.02197,-29.02661c1.96582,-0.27817 4.19385,-0.74883 6.19043,-1.0916z" fill="url(#color-4)"/><path d="M173.15332,137.16357l0.15527,-0.0104c2.59424,-0.15923 5.57373,-0.14824 7.61426,1.72002c0.75879,0.70488 1.30957,1.60371 1.59521,2.59907c0.60645,2.05986 0.42334,9.6498 0.49658,12.329l1.30811,0.4834c0.14502,1.09424 0.30322,2.18555 0.47607,3.27539c-2.58252,1.0752 -5.6792,1.771 -7.0166,-1.34326c-2.89307,2.56348 -6.13916,3.13623 -9.62402,1.24219c-1.37549,-1.01953 -2.2793,-2.31592 -2.51514,-4.01221c-0.74707,-5.45947 3.57129,-7.61895 8.23535,-7.91147c0.93896,-0.05889 2.6499,0.21196 3.14941,-0.5209c0.05273,-0.62227 -0.03516,-0.74092 -0.25195,-1.32876c-1.30518,-3.5439 -6.33105,-1.41621 -8.86377,-0.05581c-0.35596,-0.83159 -0.96533,-2.34917 -1.19238,-3.20186c-0.5874,-2.19536 5.05811,-3.07822 6.43359,-3.2644zM173.67627,153.95215c3.57715,-0.13184 3.37354,-2.31299 3.41162,-5.12109c-0.42334,0.01025 -1.20996,0.00439 -1.59961,0.05273c-1.63184,0.22852 -3.91846,0.82324 -3.95801,3.13916c-0.01758,0.97705 1.23193,1.70801 2.146,1.9292z" fill="url(#color-5)"/><path d="M123.08569,140.02354c1.31279,-1.65103 2.40088,-2.64565 4.60415,-2.87285c1.63682,-0.16025 3.4333,-0.06636 4.74067,1.06655c2.69561,2.33584 2.18892,6.63706 2.23594,9.83452c0.04863,3.30322 -0.16553,6.63281 0.10049,9.90674c-2.03423,-0.07324 -4.07021,-0.08496 -6.10518,-0.03369c0.00249,-3.89795 0.06196,-7.99365 -0.0397,-11.87373c-0.03311,-1.93052 -0.53994,-5.72007 -4.02451,-3.53906c-1.477,0.92446 -1.19136,5.47383 -1.18345,7.39131l0.02505,8.01123c-1.98867,-0.03076 -3.97764,-0.02783 -5.96616,0.00879c0.20098,-6.40137 -0.06885,-13.42266 -0.03208,-19.91924c1.34194,-0.04468 3.81958,-0.59106 5.30464,-0.82119l0.26118,0.22192c0.13008,0.94878 0.09639,1.66377 0.07896,2.6187z" fill="url(#color-6)"/><path d="M142.51553,137.16211c1.91543,-0.12173 6.34922,0.06782 7.50937,1.75898c0.2168,1.00415 -0.60059,3.11309 -0.93604,4.1792c-1.83545,-1.17861 -4.7814,-2.27021 -6.83599,-0.74458c-0.29854,0.22163 -0.2439,0.52412 -0.23643,0.84258c1.38911,2.81851 8.99575,2.36294 9.21987,7.94429c0.2124,5.29541 -3.25928,7.15723 -7.90635,7.43408c-2.16299,0.4292 -5.43838,-0.9082 -7.29229,-2.04346c0.40693,-1.24951 0.7979,-2.80811 1.15811,-4.0957c1.66553,0.74268 8.14614,3.04834 8.40308,-0.24902c-1.01953,-2.41113 -8.8667,-2.55762 -9.26821,-7.52402c-0.3731,-4.61631 1.65791,-6.87246 6.18486,-7.50234z" fill="url(#color-7)"/><path d="M159.75,132.16553l0.37061,0.0312c0.24902,0.70415 0.1333,4.64355 0.12012,5.63877l4.81348,-0.0041c0.06152,1.45898 0.02051,3.08818 0.01318,4.56006c-1.41211,-0.03442 -3.47021,-0.14414 -4.82812,-0.01992c-0.00586,3.23247 -0.22119,6.87114 0.27393,10.02642c0.2915,1.86182 2.44189,1.40332 3.6665,1.02393l0.86572,4.19678c-1.11182,0.48047 -1.94971,0.74268 -3.14355,0.88916c-0.36621,0.01904 -0.73242,0.02783 -1.09863,0.0293c-4.75488,0.0293 -6.58594,-2.38477 -6.59619,-6.95801c-0.00732,-3.05713 0.01758,-6.13887 0.03516,-9.19673l-2.9707,0.02065c0.00586,-1.47202 0.05859,-3.10576 -0.10547,-4.55522c0.90234,0.07881 2.09766,0.02856 3.02637,0.0145c0.01758,-1.60312 0.0293,-2.96426 -0.07031,-4.57031c1.87061,-0.39653 3.74707,-0.77212 5.62793,-1.12646z" fill="url(#color-8)"/><path d="M114.48735,127.93345l0.22383,-0.02871c0.28843,0.41191 0.1459,26.98638 0.15132,30.023c-1.9415,-0.06445 -3.8272,-0.02197 -5.76841,0.01172c-0.19878,-0.01025 -0.07925,0.01172 -0.34058,-0.13184c-0.10166,-0.66943 -0.01611,-7.06201 -0.01699,-8.05225l-0.01816,-20.78408c1.87559,-0.35742 3.89165,-0.78516 5.76899,-1.03784z" fill="url(#color-9)"/></g></svg></svg>